<svg xmlns="http://www.w3.org/2000/svg" xmlns:xlink="http://www.w3.org/1999/xlink" width="500" zoomAndPan="magnify" viewBox="0 0 375 374.999991" height="500" preserveAspectRatio="xMidYMid meet" version="1.0"><defs><g/><clipPath id="93d28723d7"><path d="M 132.394531 139.316406 L 231.355469 139.316406 L 231.355469 207.164062 L 132.394531 207.164062 Z M 132.394531 139.316406 " clip-rule="nonzero"/></clipPath><clipPath id="1b7e9e1323"><path d="M 132.375 136 L 231 136 L 231 205 L 132.375 205 Z M 132.375 136 " clip-rule="nonzero"/></clipPath><clipPath id="c7a70a1ba0"><path d="M 182 118.664062 L 219 118.664062 L 219 193 L 182 193 Z M 182 118.664062 " clip-rule="nonzero"/></clipPath><clipPath id="680d7aca48"><path d="M 145 118.664062 L 182 118.664062 L 182 193 L 145 193 Z M 145 118.664062 " clip-rule="nonzero"/></clipPath><clipPath id="8e5669a8ae"><path d="M 221 224 L 255.765625 224 L 255.765625 258.699219 L 221 258.699219 Z M 221 224 " clip-rule="nonzero"/></clipPath><clipPath id="651105b2e6"><path d="M 147 155 L 190 155 L 190 198 L 147 198 Z M 147 155 " clip-rule="nonzero"/></clipPath><clipPath id="7bfdb5f470"><path d="M 167.105469 146.714844 L 198.59375 174.511719 L 153.425781 225.675781 L 121.9375 197.882812 Z M 167.105469 146.714844 " clip-rule="nonzero"/></clipPath><clipPath id="2b8bf5295c"><path d="M 167.105469 146.714844 L 198.59375 174.511719 L 153.425781 225.675781 L 121.9375 197.882812 Z M 167.105469 146.714844 " clip-rule="nonzero"/></clipPath><clipPath id="4d12074385"><path d="M 148 189 L 158 189 L 158 199 L 148 199 Z M 148 189 " clip-rule="nonzero"/></clipPath><clipPath id="6c009b7834"><path d="M 167.105469 146.714844 L 198.59375 174.511719 L 153.425781 225.675781 L 121.9375 197.882812 Z M 167.105469 146.714844 " clip-rule="nonzero"/></clipPath><clipPath id="24f1de77b4"><path d="M 167.105469 146.714844 L 198.59375 174.511719 L 153.425781 225.675781 L 121.9375 197.882812 Z M 167.105469 146.714844 " clip-rule="nonzero"/></clipPath><clipPath id="533be01ce1"><path d="M 136 195 L 153 195 L 153 213 L 136 213 Z M 136 195 " clip-rule="nonzero"/></clipPath><clipPath id="093bd1bca1"><path d="M 167.105469 146.714844 L 198.59375 174.511719 L 153.425781 225.675781 L 121.9375 197.882812 Z M 167.105469 146.714844 " clip-rule="nonzero"/></clipPath><clipPath id="6c96a90bdf"><path d="M 167.105469 146.714844 L 198.59375 174.511719 L 153.425781 225.675781 L 121.9375 197.882812 Z M 167.105469 146.714844 " clip-rule="nonzero"/></clipPath><clipPath id="19aec3fa65"><path d="M 158 161 L 179 161 L 179 169 L 158 169 Z M 158 161 " clip-rule="nonzero"/></clipPath><clipPath id="91d9286184"><path d="M 167.105469 146.714844 L 198.59375 174.511719 L 153.425781 225.675781 L 121.9375 197.882812 Z M 167.105469 146.714844 " clip-rule="nonzero"/></clipPath><clipPath id="c8209e8b3c"><path d="M 167.105469 146.714844 L 198.59375 174.511719 L 153.425781 225.675781 L 121.9375 197.882812 Z M 167.105469 146.714844 " clip-rule="nonzero"/></clipPath></defs><g clip-path="url(#93d28723d7)"><path fill="#ef5006" d="M 231.328125 139.347656 C 231.351562 139.832031 231.363281 140.324219 231.347656 140.808594 C 231.34375 140.953125 231.324219 141.101562 231.308594 141.246094 C 231.191406 142.308594 231.074219 143.367188 230.957031 144.429688 C 230.738281 146.386719 230.519531 148.347656 230.304688 150.304688 C 230.011719 152.914062 229.71875 155.519531 229.425781 158.125 C 229.082031 161.164062 228.738281 164.199219 228.390625 167.238281 C 228.023438 170.460938 227.652344 173.6875 227.277344 176.910156 C 226.910156 180.070312 226.539062 183.230469 226.160156 186.390625 C 225.816406 189.265625 225.46875 192.140625 225.109375 195.011719 C 224.816406 197.363281 224.519531 199.714844 224.199219 202.0625 C 223.984375 203.65625 223.765625 205.253906 223.5 206.84375 C 223.484375 206.949219 223.464844 207.058594 223.445312 207.167969 C 219.414062 204.886719 215.226562 202.878906 210.917969 201.167969 C 206.460938 199.390625 201.875 197.933594 197.210938 196.804688 C 194.570312 196.167969 191.902344 195.636719 189.214844 195.210938 C 188.972656 195.171875 188.78125 195.347656 188.828125 195.597656 C 188.96875 196.3125 189.007812 197.03125 188.503906 197.609375 C 187.972656 198.210938 187.253906 198.699219 186.621094 199.183594 C 186.011719 199.652344 185.351562 200.050781 184.632812 200.320312 C 183.742188 200.652344 182.800781 200.824219 181.863281 200.957031 C 179.921875 200.894531 178.117188 199.984375 176.625 198.792969 C 176.113281 198.382812 175.503906 198 175.117188 197.464844 C 174.71875 196.914062 174.78125 196.230469 174.90625 195.597656 C 174.953125 195.347656 174.761719 195.171875 174.519531 195.210938 C 169.777344 195.960938 165.09375 197.046875 160.507812 198.457031 C 155.933594 199.867188 151.460938 201.597656 147.132812 203.628906 C 144.808594 204.71875 142.523438 205.902344 140.289062 207.167969 C 140.070312 205.933594 139.898438 204.691406 139.726562 203.453125 C 139.421875 201.277344 139.140625 199.101562 138.867188 196.921875 C 138.515625 194.144531 138.175781 191.363281 137.839844 188.582031 C 137.464844 185.472656 137.09375 182.359375 136.730469 179.246094 C 136.351562 176.015625 135.980469 172.78125 135.609375 169.546875 C 135.253906 166.445312 134.898438 163.339844 134.546875 160.234375 C 134.238281 157.503906 133.933594 154.777344 133.628906 152.046875 C 133.390625 149.914062 133.152344 147.78125 132.914062 145.648438 C 132.769531 144.34375 132.625 143.039062 132.480469 141.734375 C 132.394531 140.925781 132.378906 140.148438 132.410156 139.34375 C 132.59375 140.84375 132.777344 142.347656 132.964844 143.847656 C 133.261719 146.292969 133.5625 148.734375 133.863281 151.175781 C 134.226562 154.15625 134.59375 157.136719 134.957031 160.117188 C 135.359375 163.378906 135.757812 166.644531 136.160156 169.90625 C 136.5625 173.203125 136.96875 176.496094 137.371094 179.789062 C 137.75 182.859375 138.125 185.933594 138.503906 189.003906 C 138.820312 191.589844 139.136719 194.175781 139.453125 196.761719 C 139.683594 198.628906 139.910156 200.496094 140.140625 202.363281 C 140.25 203.246094 140.355469 204.132812 140.464844 205.015625 C 140.472656 205.054688 140.476562 205.089844 140.480469 205.128906 C 140.507812 205.367188 140.722656 205.515625 140.953125 205.398438 C 143.550781 204.097656 146.226562 202.945312 148.914062 201.851562 C 154.585938 199.535156 160.417969 197.519531 166.40625 196.207031 C 169.667969 195.496094 172.996094 194.984375 176.339844 194.964844 C 176.265625 195.332031 176.261719 195.714844 176.542969 196 C 176.710938 196.167969 176.933594 196.28125 177.132812 196.410156 C 177.429688 196.609375 177.691406 196.84375 177.953125 197.082031 C 179.09375 198.109375 180.269531 198.964844 181.867188 198.984375 C 183.464844 198.964844 184.644531 198.113281 185.78125 197.082031 C 186.046875 196.84375 186.308594 196.609375 186.605469 196.410156 C 186.796875 196.285156 187.007812 196.175781 187.175781 196.015625 C 187.472656 195.730469 187.472656 195.339844 187.394531 194.964844 C 190.351562 194.984375 193.296875 195.386719 196.1875 195.96875 C 199.363281 196.609375 202.492188 197.472656 205.574219 198.460938 C 210.507812 200.050781 215.347656 201.960938 220.0625 204.113281 C 220.976562 204.53125 221.886719 204.949219 222.78125 205.398438 C 223.011719 205.515625 223.226562 205.367188 223.253906 205.128906 C 223.328125 204.523438 223.40625 203.914062 223.480469 203.308594 C 223.679688 201.65625 223.882812 200.003906 224.085938 198.355469 C 224.386719 195.914062 224.6875 193.46875 224.984375 191.027344 C 225.351562 188.046875 225.714844 185.066406 226.082031 182.085938 C 226.480469 178.824219 226.882812 175.558594 227.28125 172.296875 C 227.6875 169.003906 228.089844 165.707031 228.496094 162.414062 C 228.871094 159.34375 229.25 156.273438 229.625 153.199219 C 229.941406 150.613281 230.257812 148.027344 230.578125 145.441406 C 230.804688 143.574219 231.035156 141.707031 231.265625 139.839844 C 231.285156 139.675781 231.304688 139.511719 231.328125 139.347656 " fill-opacity="1" fill-rule="nonzero"/></g><g clip-path="url(#1b7e9e1323)"><path fill="#2f69e0" d="M 230.945312 137.316406 C 230.878906 137.839844 230.816406 138.367188 230.75 138.894531 C 230.550781 140.546875 230.347656 142.199219 230.144531 143.847656 C 229.84375 146.292969 229.542969 148.734375 229.246094 151.175781 C 228.878906 154.15625 228.515625 157.136719 228.148438 160.117188 C 227.746094 163.378906 227.347656 166.644531 226.949219 169.90625 C 226.542969 173.203125 226.140625 176.496094 225.734375 179.789062 C 225.359375 182.859375 224.980469 185.929688 224.605469 189.003906 C 224.289062 191.589844 223.96875 194.175781 223.652344 196.761719 C 223.425781 198.628906 223.195312 200.496094 222.964844 202.363281 C 222.875 203.117188 222.734375 203.882812 222.667969 204.644531 C 222.078125 204.355469 221.484375 204.078125 220.886719 203.804688 C 218.953125 202.910156 216.996094 202.0625 215.023438 201.257812 C 212.324219 200.15625 209.589844 199.132812 206.820312 198.210938 C 203.742188 197.1875 200.621094 196.285156 197.449219 195.59375 C 194.375 194.921875 191.238281 194.429688 188.089844 194.34375 C 187.726562 194.335938 187.359375 194.332031 186.996094 194.335938 C 186.789062 194.335938 186.636719 194.535156 186.691406 194.734375 C 186.746094 194.925781 186.871094 195.230469 186.8125 195.4375 C 186.773438 195.5625 186.671875 195.621094 186.566406 195.6875 C 186.101562 195.996094 185.683594 196.324219 185.269531 196.699219 C 184.28125 197.589844 183.253906 198.339844 181.867188 198.355469 C 181.175781 198.347656 180.570312 198.15625 180.019531 197.855469 C 179.464844 197.554688 178.960938 197.144531 178.46875 196.699219 C 178.054688 196.324219 177.632812 195.996094 177.167969 195.6875 C 177.066406 195.621094 176.960938 195.5625 176.925781 195.4375 C 176.871094 195.230469 176.992188 194.925781 177.042969 194.734375 C 177.097656 194.535156 176.945312 194.335938 176.742188 194.335938 C 173.644531 194.316406 170.554688 194.730469 167.523438 195.332031 C 164.316406 195.972656 161.15625 196.84375 158.042969 197.839844 C 155.203125 198.753906 152.398438 199.777344 149.628906 200.886719 C 147.539062 201.722656 145.472656 202.605469 143.425781 203.539062 C 142.792969 203.828125 142.164062 204.121094 141.535156 204.417969 C 141.386719 204.492188 141.214844 204.554688 141.046875 204.628906 C 140.992188 204.191406 140.941406 203.75 140.886719 203.308594 C 140.683594 201.65625 140.480469 200.003906 140.277344 198.355469 C 139.980469 195.914062 139.679688 193.46875 139.378906 191.027344 C 139.011719 188.046875 138.648438 185.066406 138.28125 182.085938 C 137.882812 178.824219 137.480469 175.558594 137.082031 172.296875 C 136.679688 169.003906 136.273438 165.707031 135.871094 162.414062 C 135.492188 159.34375 135.117188 156.273438 134.738281 153.199219 C 134.421875 150.613281 134.105469 148.027344 133.789062 145.441406 C 133.558594 143.574219 133.328125 141.707031 133.101562 139.839844 C 133 139.007812 132.953125 138.140625 132.800781 137.3125 C 134.132812 136.996094 135.5 136.765625 136.867188 136.648438 C 137.253906 140.460938 137.648438 144.277344 138.046875 148.089844 C 138.632812 153.742188 139.230469 159.390625 139.828125 165.042969 C 140.394531 170.378906 140.960938 175.714844 141.53125 181.046875 C 141.960938 185.070312 142.394531 189.097656 142.828125 193.121094 C 143.023438 194.9375 143.207031 196.753906 143.417969 198.570312 C 143.417969 198.59375 143.421875 198.617188 143.425781 198.644531 C 143.445312 198.828125 143.609375 199.023438 143.820312 198.945312 C 144.652344 198.644531 145.492188 198.363281 146.332031 198.085938 C 148.472656 197.378906 150.628906 196.722656 152.796875 196.117188 C 155.714844 195.296875 158.660156 194.5625 161.628906 193.949219 C 164.796875 193.292969 168.003906 192.765625 171.230469 192.503906 C 173.917969 192.285156 176.664062 192.21875 179.339844 192.609375 C 180.136719 192.761719 180.933594 192.925781 181.726562 193.105469 C 181.765625 193.125 181.816406 193.136719 181.867188 193.132812 C 181.921875 193.136719 181.96875 193.125 182.011719 193.105469 C 182.8125 192.925781 183.617188 192.757812 184.425781 192.605469 C 186.710938 192.273438 189.058594 192.285156 191.351562 192.421875 C 194.589844 192.617188 197.804688 193.101562 200.984375 193.722656 C 206.332031 194.765625 211.609375 196.203125 216.789062 197.882812 C 217.835938 198.222656 218.882812 198.570312 219.914062 198.945312 C 220.125 199.023438 220.292969 198.828125 220.3125 198.644531 C 220.472656 197.160156 220.632812 195.675781 220.792969 194.191406 C 221.207031 190.363281 221.617188 186.539062 222.027344 182.714844 C 222.582031 177.507812 223.136719 172.300781 223.691406 167.09375 C 224.292969 161.429688 224.890625 155.765625 225.480469 150.097656 C 225.949219 145.617188 226.414062 141.132812 226.867188 136.648438 C 228.238281 136.765625 229.605469 137 230.945312 137.316406 " fill-opacity="1" fill-rule="nonzero"/></g><path fill="#f5dea8" d="M 222.753906 130.425781 C 224.105469 130.609375 225.457031 130.792969 226.808594 130.972656 C 226.246094 136.667969 225.65625 142.363281 225.0625 148.058594 C 224.472656 153.734375 223.875 159.410156 223.273438 165.085938 C 222.710938 170.394531 222.148438 175.707031 221.578125 181.015625 C 221.148438 185.046875 220.714844 189.078125 220.28125 193.109375 C 220.144531 194.359375 220.011719 195.609375 219.875 196.859375 C 219.835938 197.234375 219.792969 197.609375 219.753906 197.980469 C 219.746094 198.054688 219.734375 198.132812 219.722656 198.210938 C 216.847656 197.175781 213.910156 196.292969 210.96875 195.472656 C 204.898438 193.773438 198.671875 192.363281 192.375 191.867188 C 191.613281 191.804688 190.847656 191.757812 190.078125 191.730469 C 192.03125 191.496094 193.992188 191.335938 195.953125 191.25 C 200.636719 191.046875 205.40625 191.246094 209.980469 192.324219 C 212.300781 192.875 214.574219 193.660156 216.664062 194.820312 C 216.882812 194.941406 217.117188 194.785156 217.136719 194.550781 C 217.902344 185.234375 218.757812 175.925781 219.617188 166.621094 C 220.464844 157.453125 221.3125 148.285156 222.066406 139.109375 C 222.304688 136.21875 222.535156 133.324219 222.753906 130.425781 " fill-opacity="1" fill-rule="nonzero"/><path fill="#f5dea8" d="M 222.605469 123.714844 C 221.976562 132.882812 221.214844 142.039062 220.398438 151.191406 C 219.578125 160.386719 218.707031 169.578125 217.875 178.773438 C 217.414062 183.863281 216.96875 188.953125 216.550781 194.042969 C 212.746094 192.035156 208.410156 191.160156 204.160156 190.777344 C 199.347656 190.347656 194.480469 190.558594 189.695312 191.148438 C 188.75 191.265625 187.808594 191.398438 186.871094 191.546875 C 193.535156 189.558594 200.476562 188.179688 207.410156 188.972656 C 209.792969 189.246094 212.136719 189.800781 214.382812 190.640625 C 214.585938 190.714844 214.773438 190.527344 214.78125 190.339844 C 214.9375 186.390625 215.152344 182.445312 215.367188 178.503906 C 215.65625 173.195312 215.964844 167.890625 216.28125 162.589844 C 216.617188 156.90625 216.964844 151.226562 217.316406 145.546875 C 217.628906 140.472656 217.945312 135.398438 218.265625 130.328125 C 218.40625 128.078125 218.546875 125.828125 218.6875 123.578125 C 219.992188 123.625 221.300781 123.667969 222.605469 123.714844 " fill-opacity="1" fill-rule="nonzero"/><g clip-path="url(#c7a70a1ba0)"><path fill="#72b5ff" d="M 218.324219 119.332031 C 218.132812 122.457031 217.933594 125.582031 217.738281 128.707031 C 217.429688 133.636719 217.121094 138.566406 216.8125 143.496094 C 216.464844 149.152344 216.117188 154.8125 215.777344 160.472656 C 215.453125 165.875 215.136719 171.28125 214.835938 176.6875 C 214.605469 180.851562 214.378906 185.019531 214.199219 189.191406 C 214.191406 189.425781 214.179688 189.660156 214.171875 189.898438 C 206.003906 186.976562 197.113281 188.101562 188.910156 190.320312 C 186.644531 190.933594 184.40625 191.632812 182.183594 192.378906 C 182.183594 191.941406 182.183594 191.503906 182.183594 191.066406 C 182.183594 189.492188 182.183594 187.917969 182.183594 186.339844 C 182.183594 184.011719 182.183594 181.683594 182.183594 179.359375 C 182.183594 176.503906 182.183594 173.652344 182.183594 170.800781 C 182.183594 167.6875 182.183594 164.578125 182.183594 161.46875 C 182.183594 158.328125 182.183594 155.1875 182.183594 152.046875 C 182.183594 149.105469 182.183594 146.164062 182.183594 143.222656 C 182.183594 140.75 182.183594 138.277344 182.183594 135.800781 C 182.183594 134.019531 182.183594 132.242188 182.183594 130.460938 C 182.183594 129.648438 182.261719 128.789062 182.1875 127.976562 C 186.199219 125.199219 190.703125 123.15625 195.347656 121.6875 C 200.214844 120.144531 205.292969 119.199219 210.398438 118.988281 C 213.042969 118.878906 215.703125 118.96875 218.324219 119.332031 " fill-opacity="1" fill-rule="nonzero"/></g><g clip-path="url(#680d7aca48)"><path fill="#72b5ff" d="M 181.554688 188.695312 C 181.554688 189.921875 181.554688 191.148438 181.554688 192.375 C 173.453125 189.664062 164.804688 187.34375 156.199219 188.359375 C 153.9375 188.625 151.710938 189.128906 149.5625 189.898438 C 149.40625 186.078125 149.203125 182.261719 148.996094 178.445312 C 148.707031 173.144531 148.398438 167.84375 148.082031 162.546875 C 147.746094 156.871094 147.398438 151.199219 147.046875 145.527344 C 146.734375 140.460938 146.417969 135.398438 146.101562 130.332031 C 145.878906 126.839844 145.660156 123.347656 145.441406 119.855469 C 145.433594 119.679688 145.421875 119.503906 145.410156 119.332031 C 150.222656 118.664062 155.15625 118.886719 159.9375 119.667969 C 164.988281 120.492188 169.960938 121.945312 174.617188 124.074219 C 177.035156 125.175781 179.367188 126.464844 181.550781 127.976562 C 181.550781 128.058594 181.554688 128.140625 181.554688 128.222656 C 181.554688 128.785156 181.554688 129.347656 181.554688 129.914062 C 181.554688 132.144531 181.554688 134.375 181.554688 136.605469 C 181.554688 139.898438 181.554688 143.191406 181.554688 146.484375 C 181.554688 150.351562 181.554688 154.21875 181.554688 158.089844 C 181.554688 162.046875 181.554688 166.003906 181.554688 169.964844 C 181.554688 173.527344 181.554688 177.089844 181.554688 180.652344 C 181.554688 183.335938 181.554688 186.015625 181.554688 188.695312 " fill-opacity="1" fill-rule="nonzero"/></g><path fill="#f5dea8" d="M 174.785156 190.960938 C 175.453125 191.140625 176.113281 191.332031 176.777344 191.527344 C 173.777344 191.054688 170.753906 190.75 167.726562 190.621094 C 162.988281 190.417969 158.164062 190.632812 153.535156 191.730469 C 151.339844 192.253906 149.183594 192.992188 147.1875 194.042969 C 146.429688 184.898438 145.589844 175.757812 144.746094 166.621094 C 143.902344 157.453125 143.054688 148.285156 142.296875 139.113281 C 141.875 133.980469 141.480469 128.847656 141.128906 123.714844 C 142.433594 123.667969 143.742188 123.625 145.046875 123.578125 C 145.15625 125.304688 145.265625 127.03125 145.371094 128.757812 C 145.679688 133.683594 145.992188 138.609375 146.296875 143.535156 C 146.644531 149.1875 146.992188 154.839844 147.332031 160.488281 C 147.652344 165.886719 147.96875 171.28125 148.269531 176.679688 C 148.5 180.859375 148.726562 185.042969 148.90625 189.222656 C 148.921875 189.597656 148.9375 189.96875 148.953125 190.339844 C 148.960938 190.527344 149.152344 190.714844 149.351562 190.640625 C 157.566406 187.566406 166.519531 188.710938 174.785156 190.960938 " fill-opacity="1" fill-rule="nonzero"/><path fill="#f5dea8" d="M 173.667969 191.734375 C 173.28125 191.746094 172.894531 191.765625 172.507812 191.789062 C 169.277344 191.972656 166.066406 192.445312 162.890625 193.058594 C 159.824219 193.648438 156.78125 194.375 153.769531 195.195312 C 151.4375 195.828125 149.121094 196.519531 146.824219 197.265625 C 146.109375 197.496094 145.394531 197.734375 144.6875 197.976562 C 144.476562 198.050781 144.230469 198.105469 144.003906 198.1875 C 143.859375 196.851562 143.714844 195.515625 143.570312 194.179688 C 143.160156 190.371094 142.75 186.5625 142.34375 182.753906 C 141.785156 177.523438 141.226562 172.292969 140.671875 167.0625 C 140.070312 161.40625 139.472656 155.746094 138.882812 150.085938 C 138.300781 144.507812 137.722656 138.929688 137.164062 133.347656 C 137.082031 132.558594 137.003906 131.765625 136.925781 130.972656 C 138.277344 130.792969 139.632812 130.609375 140.984375 130.429688 C 141.503906 137.351562 142.09375 144.273438 142.710938 151.191406 C 143.53125 160.386719 144.402344 169.578125 145.230469 178.773438 C 145.707031 184.03125 146.167969 189.289062 146.597656 194.550781 C 146.617188 194.785156 146.851562 194.941406 147.074219 194.820312 C 150.925781 192.675781 155.386719 191.769531 159.746094 191.394531 C 164.375 190.992188 169.058594 191.183594 173.667969 191.734375 " fill-opacity="1" fill-rule="nonzero"/><g fill="#184094" fill-opacity="1"><g transform="translate(91.063689, 253.926598)"><g><path d="M 24.679688 -11.097656 C 23.621094 -15.46875 20.671875 -18.554688 15.699219 -20.535156 C 13.949219 -21.273438 12.246094 -22.285156 10.636719 -23.25 L 9.621094 -23.894531 C 8.976562 -24.265625 8.65625 -24.769531 8.65625 -25.324219 C 8.65625 -25.921875 9.023438 -26.429688 9.667969 -26.796875 C 10.773438 -27.441406 12.109375 -28.132812 13.492188 -28.410156 C 16.484375 -29.097656 19.246094 -28.179688 21.085938 -27.441406 C 21.824219 -27.121094 22.421875 -27.121094 22.746094 -27.347656 C 23.207031 -27.671875 23.296875 -28.363281 23.25 -28.914062 C 23.207031 -29.699219 22.976562 -30.527344 22.5625 -31.171875 C 21.546875 -32.875 19.9375 -33.980469 17.820312 -34.484375 C 13.03125 -35.589844 8.65625 -34.578125 4.878906 -31.492188 C 2.945312 -29.882812 1.796875 -27.765625 1.703125 -25.507812 C 1.566406 -23.25 2.484375 -20.949219 4.28125 -19.152344 C 6.859375 -16.53125 9.667969 -14.78125 12.890625 -13.8125 C 14.457031 -13.351562 16.070312 -12.617188 16.851562 -10.683594 L 17.082031 -10.175781 L 15.5625 -9.761719 C 13.722656 -9.207031 12.015625 -9.667969 10.359375 -10.128906 C 9.945312 -10.269531 9.53125 -10.359375 9.117188 -10.453125 C 8.65625 -10.589844 8.195312 -10.636719 7.78125 -10.636719 C 6.167969 -10.636719 4.835938 -9.945312 4.097656 -8.703125 C 3.175781 -7.136719 3.546875 -5.066406 5.019531 -3.453125 C 6.398438 -1.933594 8.65625 -0.136719 11.558594 -0.277344 C 14.78125 -0.414062 17.496094 -0.828125 19.753906 -1.613281 C 23.804688 -2.992188 25.738281 -6.722656 24.679688 -11.097656 Z M 24.679688 -11.097656 "/></g></g></g><g fill="#184094" fill-opacity="1"><g transform="translate(117.763971, 253.926598)"><g><path d="M 19.84375 -22.285156 C 18.050781 -24.125 15.839844 -25.324219 13.304688 -25.785156 C 9.621094 -26.476562 6.261719 -25 4.191406 -21.917969 C 2.625 -19.523438 1.980469 -16.851562 1.75 -14.042969 C 1.152344 -7.320312 5.800781 -1.703125 14.273438 -2.578125 C 15.46875 -2.671875 16.898438 -3.5 17.773438 -4.375 C 19.382812 -6.078125 18.832031 -8.105469 16.621094 -8.792969 C 15.101562 -9.300781 13.445312 -9.347656 11.878906 -9.621094 C 11.050781 -9.808594 10.269531 -10.082031 9.4375 -10.359375 C 12.292969 -10.867188 15.054688 -11.050781 17.542969 -11.925781 C 22.285156 -13.582031 23.34375 -18.648438 19.84375 -22.285156 Z M 15.746094 -17.863281 C 13.675781 -17.632812 11.558594 -17.402344 9.253906 -17.175781 C 9.621094 -18.554688 10.222656 -19.613281 11.601562 -20.027344 C 13.167969 -20.488281 15.101562 -19.707031 16.300781 -18.09375 C 16.023438 -17.957031 15.886719 -17.863281 15.746094 -17.863281 Z M 15.746094 -17.863281 "/></g></g></g><g fill="#184094" fill-opacity="1"><g transform="translate(141.425953, 253.926598)"><g><path d="M 19.84375 -22.285156 C 18.050781 -24.125 15.839844 -25.324219 13.304688 -25.785156 C 9.621094 -26.476562 6.261719 -25 4.191406 -21.917969 C 2.625 -19.523438 1.980469 -16.851562 1.75 -14.042969 C 1.152344 -7.320312 5.800781 -1.703125 14.273438 -2.578125 C 15.46875 -2.671875 16.898438 -3.5 17.773438 -4.375 C 19.382812 -6.078125 18.832031 -8.105469 16.621094 -8.792969 C 15.101562 -9.300781 13.445312 -9.347656 11.878906 -9.621094 C 11.050781 -9.808594 10.269531 -10.082031 9.4375 -10.359375 C 12.292969 -10.867188 15.054688 -11.050781 17.542969 -11.925781 C 22.285156 -13.582031 23.34375 -18.648438 19.84375 -22.285156 Z M 15.746094 -17.863281 C 13.675781 -17.632812 11.558594 -17.402344 9.253906 -17.175781 C 9.621094 -18.554688 10.222656 -19.613281 11.601562 -20.027344 C 13.167969 -20.488281 15.101562 -19.707031 16.300781 -18.09375 C 16.023438 -17.957031 15.886719 -17.863281 15.746094 -17.863281 Z M 15.746094 -17.863281 "/></g></g></g><g fill="#184094" fill-opacity="1"><g transform="translate(165.087935, 253.926598)"><g><path d="M 27.765625 -8.058594 C 25 -10.3125 22.238281 -12.523438 19.429688 -14.78125 C 18.140625 -15.792969 16.851562 -16.804688 15.5625 -17.863281 C 15.378906 -18.003906 15.242188 -18.140625 15.011719 -18.324219 L 14.226562 -19.015625 L 15.609375 -20.214844 C 16.300781 -20.765625 16.898438 -21.273438 17.542969 -21.777344 C 18.554688 -22.5625 19.523438 -23.34375 20.488281 -24.125 C 22.375 -25.601562 24.355469 -27.121094 26.246094 -28.730469 C 27.902344 -30.113281 28.269531 -32.136719 27.121094 -33.566406 C 26.015625 -34.992188 24.082031 -35.085938 22.148438 -33.796875 L 22.054688 -33.75 C 21.960938 -33.65625 21.824219 -33.613281 21.730469 -33.519531 L 9.898438 -22.792969 C 9.761719 -22.699219 9.621094 -22.605469 9.4375 -22.46875 L 8.472656 -21.777344 L 8.378906 -22.605469 C 8.289062 -23.066406 8.242188 -23.480469 8.242188 -23.894531 C 8.148438 -24.726562 8.058594 -25.507812 7.964844 -26.246094 L 7.78125 -27.394531 C 7.550781 -28.867188 7.367188 -30.433594 7 -31.90625 C 6.722656 -33.058594 5.894531 -33.75 4.742188 -33.75 C 3.589844 -33.796875 2.761719 -33.152344 2.347656 -31.863281 C 2.070312 -30.941406 1.886719 -30.160156 1.886719 -29.46875 L 1.886719 -29.007812 C 1.796875 -21.871094 1.65625 -14.503906 1.703125 -7.273438 C 1.703125 -5.984375 1.980469 -4.558594 2.578125 -2.992188 C 3.085938 -1.65625 4.464844 -0.828125 5.941406 -1.011719 C 7.457031 -1.195312 8.5625 -2.300781 8.839844 -3.867188 C 8.976562 -4.648438 8.976562 -5.480469 8.976562 -6.261719 L 8.976562 -6.539062 C 9.023438 -8.289062 9.023438 -10.039062 9.023438 -11.742188 L 9.023438 -14.042969 L 10.082031 -14.78125 L 10.359375 -14.320312 C 10.40625 -14.179688 10.496094 -14.089844 10.542969 -13.949219 C 10.636719 -13.765625 10.773438 -13.535156 10.914062 -13.398438 C 12.429688 -11.601562 13.949219 -9.808594 15.515625 -8.011719 L 16.945312 -6.308594 C 19.0625 -3.820312 21.179688 -2.210938 23.574219 -1.242188 C 25.921875 -0.277344 28.039062 -0.78125 29.144531 -2.578125 C 30.160156 -4.375 29.652344 -6.492188 27.765625 -8.058594 Z M 27.765625 -8.058594 "/></g></g></g><g fill="#184094" fill-opacity="1"><g transform="translate(196.483783, 253.926598)"><g><path d="M 21.226562 -19.890625 C 18.648438 -23.34375 14.640625 -23.894531 11.140625 -21.410156 C 10.128906 -20.671875 9.207031 -19.796875 8.148438 -18.878906 C 7.964844 -19.246094 7.875 -19.476562 7.78125 -19.753906 C 7.367188 -21.179688 6.722656 -22.515625 4.972656 -22.46875 C 3.132812 -22.375 2.578125 -20.859375 2.441406 -19.382812 C 2.117188 -15.148438 1.796875 -10.914062 1.703125 -6.675781 C 1.613281 -4.328125 3.175781 -2.714844 5.203125 -2.484375 C 7.230469 -2.257812 8.976562 -3.546875 9.53125 -5.894531 C 10.269531 -9.164062 12.0625 -11.878906 14.089844 -14.457031 C 14.410156 -14.871094 14.871094 -15.148438 15.515625 -15.746094 C 15.746094 -14.550781 15.886719 -13.765625 15.976562 -12.9375 C 16.300781 -10.773438 16.4375 -8.519531 16.988281 -6.355469 C 17.449219 -4.511719 19.015625 -3.589844 20.628906 -3.636719 C 22.101562 -3.730469 23.527344 -4.835938 23.804688 -6.675781 C 24.539062 -11.371094 24.125 -15.929688 21.226562 -19.890625 Z M 21.226562 -19.890625 "/></g></g></g><g fill="#184094" fill-opacity="1"><g transform="translate(222.354117, 253.926598)"><g/></g></g><g fill="#184094" fill-opacity="1"><g transform="translate(235.566153, 253.926598)"><g/></g></g><g fill="#184094" fill-opacity="1"><g transform="translate(248.764603, 253.926598)"><g><path d="M 31.355469 -24.449219 C 29.46875 -25.371094 27.210938 -24.585938 26.058594 -22.46875 C 25.460938 -21.363281 25.140625 -20.121094 24.679688 -18.96875 C 23.941406 -17.128906 23.207031 -15.285156 22.46875 -13.445312 C 21.273438 -15.699219 20.535156 -17.910156 19.660156 -20.121094 C 19.109375 -21.59375 18.09375 -22.792969 16.34375 -22.746094 C 14.503906 -22.699219 13.8125 -21.363281 13.214844 -19.890625 C 12.429688 -17.910156 11.511719 -16.023438 10.496094 -13.8125 C 9.484375 -16.4375 8.703125 -18.648438 7.78125 -20.859375 C 6.8125 -23.066406 5.339844 -23.894531 3.683594 -23.34375 C 2.117188 -22.792969 1.425781 -21.179688 1.796875 -18.96875 C 1.796875 -18.785156 1.839844 -18.554688 1.886719 -18.371094 C 2.394531 -15.976562 2.808594 -13.535156 3.40625 -11.140625 C 3.867188 -9.300781 4.375 -7.414062 5.066406 -5.617188 C 5.753906 -3.820312 7.042969 -2.484375 9.164062 -2.441406 C 11.1875 -2.394531 12.429688 -3.636719 13.304688 -5.296875 C 14.089844 -6.8125 14.734375 -8.425781 15.5625 -10.359375 C 15.886719 -9.621094 16.023438 -9.164062 16.207031 -8.792969 C 17.035156 -7.042969 17.632812 -5.15625 18.695312 -3.589844 C 20.628906 -0.78125 24.082031 -1.011719 25.785156 -3.914062 C 26.476562 -5.019531 26.84375 -6.308594 27.394531 -7.457031 C 28.730469 -10.359375 30.066406 -13.261719 31.449219 -16.113281 C 31.90625 -17.128906 32.550781 -18.003906 33.011719 -19.015625 C 33.980469 -21.273438 33.242188 -23.527344 31.355469 -24.449219 Z M 31.355469 -24.449219 "/></g></g></g><path fill="#ef5006" d="M 243.414062 234.316406 C 243.367188 234.367188 243.308594 234.410156 243.242188 234.449219 C 242.859375 234.667969 242.371094 234.53125 242.152344 234.148438 C 241.796875 233.523438 241.359375 232.949219 240.84375 232.4375 C 240.53125 232.121094 240.53125 231.617188 240.84375 231.304688 C 241.160156 230.988281 241.664062 230.988281 241.980469 231.304688 C 242.59375 231.917969 243.121094 232.609375 243.542969 233.355469 C 243.726562 233.675781 243.664062 234.070312 243.414062 234.316406 " fill-opacity="1" fill-rule="nonzero"/><path fill="#ef5006" d="M 239.410156 230.648438 C 239.179688 230.878906 238.820312 230.953125 238.507812 230.808594 C 236.640625 229.957031 234.453125 229.859375 232.511719 230.539062 C 232.09375 230.6875 231.636719 230.464844 231.488281 230.050781 C 231.34375 229.632812 231.5625 229.175781 231.980469 229.027344 C 234.34375 228.199219 236.898438 228.3125 239.175781 229.351562 C 239.578125 229.535156 239.753906 230.011719 239.570312 230.414062 C 239.53125 230.503906 239.472656 230.582031 239.410156 230.648438 " fill-opacity="1" fill-rule="nonzero"/><g clip-path="url(#8e5669a8ae)"><path fill="#ef5006" d="M 245.855469 238.105469 C 245.855469 240.960938 244.746094 243.644531 242.726562 245.660156 C 240.710938 247.679688 238.027344 248.789062 235.175781 248.789062 C 232.320312 248.789062 229.636719 247.679688 227.621094 245.660156 C 225.601562 243.644531 224.492188 240.960938 224.492188 238.105469 C 224.492188 235.253906 225.601562 232.570312 227.621094 230.554688 C 229.636719 228.535156 232.320312 227.425781 235.175781 227.425781 C 238.027344 227.425781 240.710938 228.535156 242.726562 230.554688 C 244.746094 232.570312 245.855469 235.253906 245.855469 238.105469 Z M 225.730469 228.664062 C 220.515625 233.878906 220.515625 242.335938 225.730469 247.550781 C 230.734375 252.550781 238.71875 252.753906 243.964844 248.15625 L 244.472656 248.664062 C 244.3125 249.257812 244.464844 249.917969 244.929688 250.382812 L 252.550781 258.003906 C 253.246094 258.699219 254.375 258.699219 255.070312 258.003906 C 255.765625 257.308594 255.765625 256.179688 255.070312 255.484375 L 247.449219 247.863281 C 246.984375 247.398438 246.324219 247.246094 245.730469 247.40625 L 245.222656 246.898438 C 249.820312 241.652344 249.621094 233.667969 244.617188 228.664062 C 239.402344 223.449219 230.945312 223.449219 225.730469 228.664062 " fill-opacity="1" fill-rule="nonzero"/></g><g clip-path="url(#651105b2e6)"><g clip-path="url(#7bfdb5f470)"><g clip-path="url(#2b8bf5295c)"><path fill="#ef5006" d="M 182.847656 160.613281 C 187.195312 164.453125 189.570312 169.695312 189.898438 175.066406 C 190.222656 180.441406 188.5 185.945312 184.652344 190.304688 C 180.800781 194.664062 175.554688 197.058594 170.183594 197.402344 C 164.8125 197.742188 159.316406 196.035156 154.96875 192.199219 C 150.621094 188.363281 148.246094 183.121094 147.917969 177.746094 C 147.59375 172.375 149.316406 166.871094 153.164062 162.507812 C 157.015625 158.148438 162.261719 155.757812 167.632812 155.414062 C 173.003906 155.070312 178.5 156.777344 182.847656 160.613281 Z M 186.484375 175.285156 C 186.210938 170.785156 184.222656 166.394531 180.582031 163.183594 C 176.941406 159.96875 172.339844 158.539062 167.839844 158.828125 C 163.34375 159.113281 158.949219 161.117188 155.726562 164.769531 C 152.5 168.421875 151.058594 173.03125 151.332031 177.527344 C 151.605469 182.027344 153.59375 186.417969 157.234375 189.632812 C 160.875 192.84375 165.476562 194.273438 169.976562 193.988281 C 174.472656 193.699219 178.867188 191.695312 182.089844 188.042969 C 185.316406 184.394531 186.757812 179.785156 186.484375 175.285156 Z M 186.484375 175.285156 " fill-opacity="1" fill-rule="nonzero"/></g></g></g><g clip-path="url(#4d12074385)"><g clip-path="url(#6c009b7834)"><g clip-path="url(#24f1de77b4)"><path fill="#ef5006" d="M 154.441406 189.335938 L 157.875 192.363281 L 152.035156 198.976562 L 148.605469 195.949219 Z M 154.441406 189.335938 " fill-opacity="1" fill-rule="evenodd"/></g></g></g><g clip-path="url(#533be01ce1)"><g clip-path="url(#093bd1bca1)"><g clip-path="url(#6c96a90bdf)"><path fill="#ef5006" d="M 151.117188 196.5625 C 153.035156 198.257812 153.214844 201.222656 151.515625 203.148438 L 144.269531 211.359375 C 142.566406 213.285156 139.605469 213.476562 137.683594 211.78125 C 135.761719 210.082031 135.582031 207.121094 137.28125 205.191406 L 144.53125 196.984375 C 146.230469 195.054688 149.195312 194.867188 151.117188 196.5625 Z M 151.117188 196.5625 " fill-opacity="1" fill-rule="evenodd"/></g></g></g><g clip-path="url(#19aec3fa65)"><g clip-path="url(#91d9286184)"><g clip-path="url(#c8209e8b3c)"><path fill="#ef5006" d="M 158.964844 165.292969 C 161.535156 162.984375 164.738281 161.710938 168.003906 161.5 C 171.269531 161.292969 174.601562 162.152344 177.429688 164.113281 C 177.808594 164.378906 178.035156 164.753906 178.089844 165.214844 C 178.144531 165.675781 178.015625 166.09375 177.707031 166.441406 L 177.515625 166.65625 C 176.988281 167.253906 176.105469 167.363281 175.449219 166.910156 C 173.277344 165.410156 170.71875 164.753906 168.210938 164.914062 C 165.703125 165.074219 163.242188 166.050781 161.265625 167.816406 C 160.671875 168.347656 159.785156 168.351562 159.1875 167.824219 L 158.972656 167.636719 C 158.625 167.328125 158.445312 166.929688 158.445312 166.46875 C 158.441406 166.003906 158.621094 165.605469 158.964844 165.292969 Z M 158.964844 165.292969 " fill-opacity="1" fill-rule="nonzero"/></g></g></g></svg>